<svg xmlns="http://www.w3.org/2000/svg" viewBox="0 0 1918.81 805.82"><defs><style>.cls-1{opacity:0.5;}.cls-2{fill:#def7e5;}</style></defs><g id="Camada_2" data-name="Camada 2"><g id="Camada_1-2" data-name="Camada 1"><g class="cls-1"><path class="cls-2" d="M1459.08,804.83c-14.63-.51-28.42-4.7-41.85-10-20.7-8.19-38.37-21-53.64-37.05-17.79-18.7-31.11-40.43-41.84-63.76-12.32-26.76-20.67-54.89-27.17-83.51-5.76-25.37-13.67-49.83-26.11-72.76a252.4,252.4,0,0,0-29.18-41.94c-9.77-11.61-20.66-22.15-31.75-32.4-14-12.91-29.17-24.43-44.8-35.34A758.78,758.78,0,0,0,1085,380.77c-34-18.16-68.76-34.84-104.38-49.66-29.16-12.14-57.52-25.75-83.51-44a321.56,321.56,0,0,1-53-46.5,313.88,313.88,0,0,1-52.28-78.31A390.65,390.65,0,0,1,759.45,56.77c-2.21-13.87-4.8-27.68-4.93-41.78-1.24-1.84.31-4.15-1-6,0-9,0-9,9-9H1910.65c1.66,0,3.33.07,5,0,2.42-.12,3.3,1.05,3.16,3.32-.08,1.16,0,2.33,0,3.5V588.41c0,1,0,2,0,3,.12,2.64-.29,3.89-3.67,3.09a167.29,167.29,0,0,0-36.9-4.11A174.93,174.93,0,0,0,1828.7,597c-28.9,8.31-54,23.27-77.3,41.95-20.79,16.68-39.85,35.18-58.11,54.48q-19.72,20.85-40.31,40.81c-13.65,13.28-28,26-44.44,35.78-12,7.12-25.2,11.85-38.19,16.88a297.78,297.78,0,0,1-54,15.26c-7,1.28-14.08,1.83-21.13,2.69-1.44.17-3-.41-4.18,1h-26C1463.24,804.52,1460.93,806.08,1459.08,804.83Z"/><path class="cls-2" d="M0,0H272.13c6.72,0,7.12,0,6.61,6.74-1.07,14.15-2.81,28.11-14.52,38.37-5.79,5.08-12.69,7.7-19.83,9.82C226.15,60.38,207,62.2,189,68.67A143.84,143.84,0,0,0,145,94.2c-20.21,16.92-34.49,38.25-47.25,60.91-9.56,17-16.64,35-24.08,52.93-5,12.17-13.25,21.43-26.68,24.75-11.21,2.77-21.71,0-31.86-4.6C10,225.89,5,223.2,0,220.69Z"/><path class="cls-2" d="M1459.08,804.83c2,.31,4.24-.81,6,1h-6Z"/><path class="cls-2" d="M726.54,139.13c0-7,5.22-12.33,12.08-12.3,7,0,12.87,5.63,12.9,12.41,0,7-5.95,12.64-13.25,12.55C731.54,151.7,726.5,146.27,726.54,139.13Z"/><path class="cls-2" d="M1284.56,651.05a12.8,12.8,0,0,1,12.62,12.69c-.11,7-6.21,12.47-13.54,12.27-6.63-.18-11.54-5.73-11.44-12.94A11.92,11.92,0,0,1,1284.56,651.05Z"/><path class="cls-2" d="M700.56,115.84h-.49c-1.1-.09-3.26-.22-3-.81,2.8-6-8.55-3.3-5.51-9.18,1.49-1.16,3.5.24,5-1-.16-2.87-.22-5.64,4-5,1.17,1.49-.23,3.5,1,5h0c1.48,1.22,3.5-.17,5,1,.65,4.22-2.12,4.17-5,4C700.26,111.69,701.8,114,700.56,115.84Z"/><path class="cls-2" d="M1231.22,649.05c.65,4.22-2.12,4.17-5,4-1.3,1.84.24,4.15-1,6h-.49c-1.1-.1-3.27-.22-3-.82,2.8-6-8.55-3.29-5.51-9.17,1.49-1.17,3.5.23,5-1-.17-2.87-.22-5.65,4-5,1.17,1.5-.23,3.51,1,5C1227.71,649.28,1229.72,647.89,1231.22,649.05Z"/><path class="cls-2" d="M753.52,9c1.81,1.75.68,4,1,6C752.71,13.24,753.85,11,753.52,9Z"/><path class="cls-2" d="M700.56,115.84c.33-2-.82-4.23,1-6C701.23,111.85,702.37,114.1,700.56,115.84Z"/><path class="cls-2" d="M1225.23,659c.32-2-.82-4.24,1-6C1225.9,655.05,1227,657.29,1225.23,659Z"/><path class="cls-2" d="M701.56,104.86c-1.67-1.4-.76-3.31-1-5C702.23,101.27,701.31,103.18,701.56,104.86Z"/><path class="cls-2" d="M696.55,104.86c-1.39,1.67-3.3.75-5,1C693,104.2,694.87,105.1,696.55,104.86Z"/><path class="cls-2" d="M706.55,105.86c-1.68-.25-3.59.66-5-1C703.24,105.1,705.16,104.19,706.55,105.86Z"/><path class="cls-2" d="M1226.23,648.06c-1.67-1.4-.76-3.31-1-5C1226.89,644.46,1226,646.37,1226.23,648.06Z"/><path class="cls-2" d="M1221.22,648.06c-1.39,1.66-3.3.75-5,1C1217.63,647.39,1219.54,648.3,1221.22,648.06Z"/><path class="cls-2" d="M1231.22,649.05c-1.68-.24-3.59.67-5-1C1227.91,648.3,1229.82,647.39,1231.22,649.05Z"/></g></g></g></svg>